<?xml version="1.0" encoding="UTF-8"?>
<svg width="340px" height="182px" viewBox="0 0 340 182" version="1.1" xmlns="http://www.w3.org/2000/svg" xmlns:xlink="http://www.w3.org/1999/xlink">
    <!-- Generator: Sketch 48.2 (47327) - http://www.bohemiancoding.com/sketch -->
    <title>logo</title>
    <desc>Created with Sketch.</desc>
    <defs>
        <linearGradient x1="53.4009933%" y1="100%" x2="53.4009933%" y2="0%" id="linearGradient-1">
            <stop stop-color="#E35957" offset="0%"></stop>
            <stop stop-color="#CD201F" offset="100%"></stop>
        </linearGradient>
        <linearGradient x1="50%" y1="0%" x2="50%" y2="98.7324617%" id="linearGradient-2">
            <stop stop-color="#E64645" offset="0%"></stop>
            <stop stop-color="#CD201F" offset="100%"></stop>
        </linearGradient>
        <linearGradient x1="0%" y1="50%" x2="56.1855521%" y2="50%" id="linearGradient-3">
            <stop stop-color="#E84341" offset="0%"></stop>
            <stop stop-color="#CD201F" offset="100%"></stop>
        </linearGradient>
    </defs>
    <g id="Page-1" stroke="none" stroke-width="1" fill="none" fill-rule="evenodd">
        <path d="M111.926425,95 L111.926425,75.0023703 L82.3516914,45.0895002 L52.7769576,75.0023703 L52.7769576,169.0751 L14,169.0751 L14,66.7867239 L62.6696043,17.4480177 L65,15 L65.0844234,15 L99.7033827,15 L102.033778,17.4480177 L150.703383,66.7867239 L150.703383,169.0751 L111.926425,169.0751 L111.926425,130 L52.7999878,130 L52.7999878,95 L111.926425,95 Z" id="Combined-Shape" stroke="#FFFFFF" stroke-width="8" fill="url(#linearGradient-1)"></path>
        <polygon id="Path" fill="url(#linearGradient-1)" transform="translate(59.892427, 92.037550) scale(-1, 1) translate(-59.892427, -92.037550) " points="20.0814705 15 14 21.3884203 67.0078956 75.0023703 67.0078956 169.0751 105.784853 169.0751 105.784853 66.7867239 54.7004298 15"></polygon>
        <polygon id="Path" fill="url(#linearGradient-2)" points="65 15 58.9185295 21.3884203 111.926425 75.0023703 111.926425 169.0751 150.703383 169.0751 150.703383 66.7867239 99.6189593 15"></polygon>
        <polygon id="Path-2" fill="url(#linearGradient-3)" points="52.7999878 95 52.7999878 130 112.276151 130 150.168187 95"></polygon>
        <text id="Autoya.(dot)" font-family="PTSans-Regular, PT Sans" font-size="28" font-weight="normal" fill="#CF2221">
            <tspan x="178.25" y="106">Autoya.(dot)</tspan>
        </text>
    </g>
</svg>